<svg xmlns="http://www.w3.org/2000/svg" viewBox="0 0 64 64">
  <defs>
    <linearGradient id="g" x1="0%" y1="0%" x2="100%" y2="100%">
      <stop offset="0%" stop-color="#0ea5e9" />
      <stop offset="100%" stop-color="#1e3a8a" />
    </linearGradient>
  </defs>
  <rect width="64" height="64" rx="12" fill="url(#g)" />
  <path
    d="M10 37l20-5 6-17c.5-1.4 2-2 3.3-1.3l1.8.9c1 .5 1.5 1.7 1.1 2.8L37 34l13.8 3.5c1 .2 1.8 1 2 2l.2 1c.2 1.3-.7 2.6-2 2.8l-14 1.8-6.4 8c-.8 1-2.1 1.2-3.2.4l-1.5-1.1c-.9-.7-1.3-1.9-.8-3l4.4-9.6-15.3 2c-1.2.1-2.3-.6-2.6-1.8l-.5-1.8c-.4-1.6.7-3.1 2.2-3.3z"
    fill="#f8fafc"
  />
</svg>
